  0
SECTION
  2
HEADER
  9
$ACADVER
  1
AC1009
  9
$FILLMODE
 70
1
  9
$EXTMIN
 10
-3.4031
 20
4.3114
 30
0.0000
  9
$EXTMAX
 10
62.7236
 20
76.7059
 30
0.0000
  0
ENDSEC
  0
SECTION
  2
TABLES
  0
TABLE
  2
LTYPE
 70
1
  0
LTYPE
  2
CONTINUOUS
 70
64
  3
Solid line
 72
65
 73
0
 40
0
  0
ENDTAB
  0
TABLE
  2
LAYER
 70
255
  0
LAYER
  2
31
 70
64
 62
253
  6
CONTINUOUS
  0
ENDTAB
  0
ENDSEC
  0
SECTION
  2
BLOCKS
  0
BLOCK
  8
0
  2
RECT
 70
64
 10
0.0000
 20
0.0000
 30
0.0000
  3
RECT
  0
SOLID
  8
0
 10
-0.5000
 20
-0.5000
 30
0.0000
 11
0.5000
 21
-0.5000
 31
0.0000
 12
-0.5000
 22
0.5000
 32
0.0000
 13
0.5000
 23
0.5000
 33
0.0000
  0
ENDBLK
  8
0
  0
BLOCK
  8
0
  2
PIE
 70
64
 10
0.0000
 20
0.0000
 30
0.0000
  3
PIE
  0
POLYLINE
  8
0
 66
1
 10
0.0000
 20
0.0000
 30
0.0000
 40
0.5000
 41
0.5000
 70
0
  0
VERTEX
  8
0
 10
0.0000
 20
-0.2500
 30
0.0000
 42
1.0000
  0
VERTEX
  8
0
 10
0.0000
 20
0.2500
 30
0.0000
 42
1.0000
  0
VERTEX
  8
0
 10
0.0000
 20
-0.2500
 30
0.0000
  0
SEQEND
  8
0
  0
ENDBLK
  8
0
  0
BLOCK
  8
0
  2
OCTAGONP
 70
64
 10
0.0000
 20
0.0000
 30
0.0000
  3
OCTAGONP
  0
POLYLINE
  8
0
 66
1
 10
0.0000
 20
0.0000
 30
0.0000
 40
0.5000
 41
0.5000
 70
0
  0
VERTEX
  8
0
 10
-0.2500
 20
-0.1036
 30
0.0000
  0
VERTEX
  8
0
 10
-0.2500
 20
0.1036
 30
0.0000
  0
VERTEX
  8
0
 10
-0.1036
 20
0.2500
 30
0.0000
  0
VERTEX
  8
0
 10
0.1036
 20
0.2500
 30
0.0000
  0
VERTEX
  8
0
 10
0.2500
 20
0.1036
 30
0.0000
  0
VERTEX
  8
0
 10
0.2500
 20
-0.1036
 30
0.0000
  0
VERTEX
  8
0
 10
0.1036
 20
-0.2500
 30
0.0000
  0
VERTEX
  8
0
 10
-0.1036
 20
-0.2500
 30
0.0000
  0
VERTEX
  8
0
 10
-0.2500
 20
-0.1036
 30
0.0000
  0
VERTEX
  8
0
 10
-0.2500
 20
0.1036
 30
0.0000
  0
SEQEND
  8
0
  0
ENDBLK
  8
0
  0
BLOCK
  8
0
  2
SQUAREP
 70
64
 10
0.0000
 20
0.0000
 30
0.0000
  3
SQUAREP
  0
SOLID
  8
0
 10
-0.5000
 20
-0.5000
 30
0.0000
 11
0.5000
 21
-0.5000
 31
0.0000
 12
-0.5000
 22
0.5000
 32
0.0000
 13
0.5000
 23
0.5000
 33
0.0000
  0
ENDBLK
  8
0
  0
BLOCK
  8
0
  2
ROUNDP
 70
64
 10
0.0000
 20
0.0000
 30
0.0000
  3
ROUNDP
  0
POLYLINE
  8
0
 66
1
 10
0.0000
 20
0.0000
 30
0.0000
 40
0.5000
 41
0.5000
 70
0
  0
VERTEX
  8
0
 10
0.0000
 20
-0.2500
 30
0.0000
 42
1.0000
  0
VERTEX
  8
0
 10
0.0000
 20
0.2500
 30
0.0000
 42
1.0000
  0
VERTEX
  8
0
 10
0.0000
 20
-0.2500
 30
0.0000
  0
SEQEND
  8
0
  0
ENDBLK
  8
0
  0
BLOCK
  8
0
  2
ANNULUSP
 70
64
 10
0.0000
 20
0.0000
 30
0.0000
  3
ANNULUSP
  0
POLYLINE
  8
0
 66
1
 10
0.0000
 20
0.0000
 30
0.0000
 40
0.5000
 41
0.5000
 70
0
  0
VERTEX
  8
0
 10
0.0000
 20
-0.2500
 30
0.0000
 42
1.0000
  0
VERTEX
  8
0
 10
0.0000
 20
0.2500
 30
0.0000
 42
1.0000
  0
VERTEX
  8
0
 10
0.0000
 20
-0.2500
 30
0.0000
  0
SEQEND
  8
0
  0
ENDBLK
  8
0
  0
BLOCK
  8
0
  2
THERMALP
 70
64
 10
0.0000
 20
0.0000
 30
0.0000
  3
THERMALP
  0
POLYLINE
  8
0
 66
1
 10
0.0000
 20
0.0000
 30
0.0000
 40
0.1000
 41
0.1000
 70
0
  0
VERTEX
  8
0
 10
-0.2379
 20
0.4500
 30
0.0000
  0
VERTEX
  8
0
 10
0.2379
 20
0.4500
 30
0.0000
  0
SEQEND
  8
0
  0
POLYLINE
  8
0
 66
1
 10
0.0000
 20
0.0000
 30
0.0000
 40
0.0500
 41
0.0500
 70
0
  0
VERTEX
  8
0
 10
0.2379
 20
0.4250
 30
0.0000
 42
1.0000
  0
VERTEX
  8
0
 10
0.2379
 20
0.4750
 30
0.0000
  0
SEQEND
  8
0
  0
POLYLINE
  8
0
 66
1
 10
0.0000
 20
0.0000
 30
0.0000
 40
0.0500
 41
0.0500
 70
0
  0
VERTEX
  8
0
 10
-0.2379
 20
0.4750
 30
0.0000
 42
1.0000
  0
VERTEX
  8
0
 10
-0.2379
 20
0.4250
 30
0.0000
  0
SEQEND
  8
0
  0
POLYLINE
  8
0
 66
1
 10
0.0000
 20
0.0000
 30
0.0000
 40
0.1000
 41
0.1000
 70
0
  0
VERTEX
  8
0
 10
0.4500
 20
0.2379
 30
0.0000
  0
VERTEX
  8
0
 10
0.4500
 20
-0.2379
 30
0.0000
  0
SEQEND
  8
0
  0
POLYLINE
  8
0
 66
1
 10
0.0000
 20
0.0000
 30
0.0000
 40
0.0500
 41
0.0500
 70
0
  0
VERTEX
  8
0
 10
0.4250
 20
-0.2379
 30
0.0000
 42
1.0000
  0
VERTEX
  8
0
 10
0.4750
 20
-0.2379
 30
0.0000
  0
SEQEND
  8
0
  0
POLYLINE
  8
0
 66
1
 10
0.0000
 20
0.0000
 30
0.0000
 40
0.0500
 41
0.0500
 70
0
  0
VERTEX
  8
0
 10
0.4750
 20
0.2379
 30
0.0000
 42
1.0000
  0
VERTEX
  8
0
 10
0.4250
 20
0.2379
 30
0.0000
  0
SEQEND
  8
0
  0
POLYLINE
  8
0
 66
1
 10
0.0000
 20
0.0000
 30
0.0000
 40
0.1000
 41
0.1000
 70
0
  0
VERTEX
  8
0
 10
0.2379
 20
-0.4500
 30
0.0000
  0
VERTEX
  8
0
 10
-0.2379
 20
-0.4500
 30
0.0000
  0
SEQEND
  8
0
  0
POLYLINE
  8
0
 66
1
 10
0.0000
 20
0.0000
 30
0.0000
 40
0.0500
 41
0.0500
 70
0
  0
VERTEX
  8
0
 10
-0.2379
 20
-0.4250
 30
0.0000
 42
1.0000
  0
VERTEX
  8
0
 10
-0.2379
 20
-0.4750
 30
0.0000
  0
SEQEND
  8
0
  0
POLYLINE
  8
0
 66
1
 10
0.0000
 20
0.0000
 30
0.0000
 40
0.0500
 41
0.0500
 70
0
  0
VERTEX
  8
0
 10
0.2379
 20
-0.4750
 30
0.0000
 42
1.0000
  0
VERTEX
  8
0
 10
0.2379
 20
-0.4250
 30
0.0000
  0
SEQEND
  8
0
  0
POLYLINE
  8
0
 66
1
 10
0.0000
 20
0.0000
 30
0.0000
 40
0.1000
 41
0.1000
 70
0
  0
VERTEX
  8
0
 10
-0.4500
 20
-0.2379
 30
0.0000
  0
VERTEX
  8
0
 10
-0.4500
 20
0.2379
 30
0.0000
  0
SEQEND
  8
0
  0
POLYLINE
  8
0
 66
1
 10
0.0000
 20
0.0000
 30
0.0000
 40
0.0500
 41
0.0500
 70
0
  0
VERTEX
  8
0
 10
-0.4250
 20
0.2379
 30
0.0000
 42
1.0000
  0
VERTEX
  8
0
 10
-0.4750
 20
0.2379
 30
0.0000
  0
SEQEND
  8
0
  0
POLYLINE
  8
0
 66
1
 10
0.0000
 20
0.0000
 30
0.0000
 40
0.0500
 41
0.0500
 70
0
  0
VERTEX
  8
0
 10
-0.4750
 20
-0.2379
 30
0.0000
 42
1.0000
  0
VERTEX
  8
0
 10
-0.4250
 20
-0.2379
 30
0.0000
  0
SEQEND
  8
0
  0
ENDBLK
  8
0
  0
BLOCK
  8
0
  2
OCTAGONV
 70
64
 10
0.0000
 20
0.0000
 30
0.0000
  3
OCTAGONV
  0
POLYLINE
  8
0
 66
1
 10
0.0000
 20
0.0000
 30
0.0000
 40
0.5000
 41
0.5000
 70
0
  0
VERTEX
  8
0
 10
-0.2500
 20
-0.1036
 30
0.0000
  0
VERTEX
  8
0
 10
-0.2500
 20
0.1036
 30
0.0000
  0
VERTEX
  8
0
 10
-0.1036
 20
0.2500
 30
0.0000
  0
VERTEX
  8
0
 10
0.1036
 20
0.2500
 30
0.0000
  0
VERTEX
  8
0
 10
0.2500
 20
0.1036
 30
0.0000
  0
VERTEX
  8
0
 10
0.2500
 20
-0.1036
 30
0.0000
  0
VERTEX
  8
0
 10
0.1036
 20
-0.2500
 30
0.0000
  0
VERTEX
  8
0
 10
-0.1036
 20
-0.2500
 30
0.0000
  0
VERTEX
  8
0
 10
-0.2500
 20
-0.1036
 30
0.0000
  0
VERTEX
  8
0
 10
-0.2500
 20
0.1036
 30
0.0000
  0
SEQEND
  8
0
  0
ENDBLK
  8
0
  0
BLOCK
  8
0
  2
SQUAREV
 70
64
 10
0.0000
 20
0.0000
 30
0.0000
  3
SQUAREV
  0
SOLID
  8
0
 10
-0.5000
 20
-0.5000
 30
0.0000
 11
0.5000
 21
-0.5000
 31
0.0000
 12
-0.5000
 22
0.5000
 32
0.0000
 13
0.5000
 23
0.5000
 33
0.0000
  0
ENDBLK
  8
0
  0
BLOCK
  8
0
  2
ROUNDV
 70
64
 10
0.0000
 20
0.0000
 30
0.0000
  3
ROUNDV
  0
POLYLINE
  8
0
 66
1
 10
0.0000
 20
0.0000
 30
0.0000
 40
0.5000
 41
0.5000
 70
0
  0
VERTEX
  8
0
 10
0.0000
 20
-0.2500
 30
0.0000
 42
1.0000
  0
VERTEX
  8
0
 10
0.0000
 20
0.2500
 30
0.0000
 42
1.0000
  0
VERTEX
  8
0
 10
0.0000
 20
-0.2500
 30
0.0000
  0
SEQEND
  8
0
  0
ENDBLK
  8
0
  0
BLOCK
  8
0
  2
ANNULUSV
 70
64
 10
0.0000
 20
0.0000
 30
0.0000
  3
ANNULUSV
  0
POLYLINE
  8
0
 66
1
 10
0.0000
 20
0.0000
 30
0.0000
 40
0.5000
 41
0.5000
 70
0
  0
VERTEX
  8
0
 10
0.0000
 20
-0.2500
 30
0.0000
 42
1.0000
  0
VERTEX
  8
0
 10
0.0000
 20
0.2500
 30
0.0000
 42
1.0000
  0
VERTEX
  8
0
 10
0.0000
 20
-0.2500
 30
0.0000
  0
SEQEND
  8
0
  0
ENDBLK
  8
0
  0
BLOCK
  8
0
  2
THERMALV
 70
64
 10
0.0000
 20
0.0000
 30
0.0000
  3
THERMALV
  0
POLYLINE
  8
0
 66
1
 10
0.0000
 20
0.0000
 30
0.0000
 40
0.1000
 41
0.1000
 70
0
  0
VERTEX
  8
0
 10
-0.2379
 20
0.4500
 30
0.0000
  0
VERTEX
  8
0
 10
0.2379
 20
0.4500
 30
0.0000
  0
SEQEND
  8
0
  0
POLYLINE
  8
0
 66
1
 10
0.0000
 20
0.0000
 30
0.0000
 40
0.0500
 41
0.0500
 70
0
  0
VERTEX
  8
0
 10
0.2379
 20
0.4250
 30
0.0000
 42
1.0000
  0
VERTEX
  8
0
 10
0.2379
 20
0.4750
 30
0.0000
  0
SEQEND
  8
0
  0
POLYLINE
  8
0
 66
1
 10
0.0000
 20
0.0000
 30
0.0000
 40
0.0500
 41
0.0500
 70
0
  0
VERTEX
  8
0
 10
-0.2379
 20
0.4750
 30
0.0000
 42
1.0000
  0
VERTEX
  8
0
 10
-0.2379
 20
0.4250
 30
0.0000
  0
SEQEND
  8
0
  0
POLYLINE
  8
0
 66
1
 10
0.0000
 20
0.0000
 30
0.0000
 40
0.1000
 41
0.1000
 70
0
  0
VERTEX
  8
0
 10
0.4500
 20
0.2379
 30
0.0000
  0
VERTEX
  8
0
 10
0.4500
 20
-0.2379
 30
0.0000
  0
SEQEND
  8
0
  0
POLYLINE
  8
0
 66
1
 10
0.0000
 20
0.0000
 30
0.0000
 40
0.0500
 41
0.0500
 70
0
  0
VERTEX
  8
0
 10
0.4250
 20
-0.2379
 30
0.0000
 42
1.0000
  0
VERTEX
  8
0
 10
0.4750
 20
-0.2379
 30
0.0000
  0
SEQEND
  8
0
  0
POLYLINE
  8
0
 66
1
 10
0.0000
 20
0.0000
 30
0.0000
 40
0.0500
 41
0.0500
 70
0
  0
VERTEX
  8
0
 10
0.4750
 20
0.2379
 30
0.0000
 42
1.0000
  0
VERTEX
  8
0
 10
0.4250
 20
0.2379
 30
0.0000
  0
SEQEND
  8
0
  0
POLYLINE
  8
0
 66
1
 10
0.0000
 20
0.0000
 30
0.0000
 40
0.1000
 41
0.1000
 70
0
  0
VERTEX
  8
0
 10
0.2379
 20
-0.4500
 30
0.0000
  0
VERTEX
  8
0
 10
-0.2379
 20
-0.4500
 30
0.0000
  0
SEQEND
  8
0
  0
POLYLINE
  8
0
 66
1
 10
0.0000
 20
0.0000
 30
0.0000
 40
0.0500
 41
0.0500
 70
0
  0
VERTEX
  8
0
 10
-0.2379
 20
-0.4250
 30
0.0000
 42
1.0000
  0
VERTEX
  8
0
 10
-0.2379
 20
-0.4750
 30
0.0000
  0
SEQEND
  8
0
  0
POLYLINE
  8
0
 66
1
 10
0.0000
 20
0.0000
 30
0.0000
 40
0.0500
 41
0.0500
 70
0
  0
VERTEX
  8
0
 10
0.2379
 20
-0.4750
 30
0.0000
 42
1.0000
  0
VERTEX
  8
0
 10
0.2379
 20
-0.4250
 30
0.0000
  0
SEQEND
  8
0
  0
POLYLINE
  8
0
 66
1
 10
0.0000
 20
0.0000
 30
0.0000
 40
0.1000
 41
0.1000
 70
0
  0
VERTEX
  8
0
 10
-0.4500
 20
-0.2379
 30
0.0000
  0
VERTEX
  8
0
 10
-0.4500
 20
0.2379
 30
0.0000
  0
SEQEND
  8
0
  0
POLYLINE
  8
0
 66
1
 10
0.0000
 20
0.0000
 30
0.0000
 40
0.0500
 41
0.0500
 70
0
  0
VERTEX
  8
0
 10
-0.4250
 20
0.2379
 30
0.0000
 42
1.0000
  0
VERTEX
  8
0
 10
-0.4750
 20
0.2379
 30
0.0000
  0
SEQEND
  8
0
  0
POLYLINE
  8
0
 66
1
 10
0.0000
 20
0.0000
 30
0.0000
 40
0.0500
 41
0.0500
 70
0
  0
VERTEX
  8
0
 10
-0.4750
 20
-0.2379
 30
0.0000
 42
1.0000
  0
VERTEX
  8
0
 10
-0.4250
 20
-0.2379
 30
0.0000
  0
SEQEND
  8
0
  0
ENDBLK
  8
0
  0
BLOCK
  8
0
  2
LONGP100
 70
64
 10
0.0000
 20
0.0000
 30
0.0000
  3
LONGP100
  0
POLYLINE
  8
0
 66
1
 10
0.0000
 20
0.0000
 30
0.0000
 40
1.0000
 41
1.0000
 70
0
  0
VERTEX
  8
0
 10
-0.5000
 20
0.0000
 30
0.0000
  0
VERTEX
  8
0
 10
0.5000
 20
0.0000
 30
0.0000
  0
SEQEND
  8
0
  0
POLYLINE
  8
0
 66
1
 10
0.0000
 20
0.0000
 30
0.0000
 40
0.5000
 41
0.5000
 70
0
  0
VERTEX
  8
0
 10
0.5000
 20
-0.2500
 30
0.0000
 42
1.0000
  0
VERTEX
  8
0
 10
0.5000
 20
0.2500
 30
0.0000
  0
SEQEND
  8
0
  0
POLYLINE
  8
0
 66
1
 10
0.0000
 20
0.0000
 30
0.0000
 40
0.5000
 41
0.5000
 70
0
  0
VERTEX
  8
0
 10
-0.5000
 20
0.2500
 30
0.0000
 42
1.0000
  0
VERTEX
  8
0
 10
-0.5000
 20
-0.2500
 30
0.0000
  0
SEQEND
  8
0
  0
ENDBLK
  8
0
  0
ENDSEC
  0
SECTION
  2
ENTITIES
  0
INSERT
  8
31
  2
RECT
 10
34.2926
 20
57.6000
 30
0.0000
 41
1.1430
 42
0.4318
 43
1.0000
 50
180.0000
  0
INSERT
  8
31
  2
RECT
 10
34.2926
 20
58.4000
 30
0.0000
 41
1.1430
 42
0.4318
 43
1.0000
 50
180.0000
  0
INSERT
  8
31
  2
RECT
 10
34.2926
 20
59.2000
 30
0.0000
 41
1.1430
 42
0.4318
 43
1.0000
 50
180.0000
  0
INSERT
  8
31
  2
RECT
 10
34.2926
 20
60.0000
 30
0.0000
 41
1.1430
 42
0.4318
 43
1.0000
 50
180.0000
  0
INSERT
  8
31
  2
RECT
 10
34.2926
 20
60.8000
 30
0.0000
 41
1.1430
 42
0.4318
 43
1.0000
 50
180.0000
  0
INSERT
  8
31
  2
RECT
 10
34.2926
 20
61.6000
 30
0.0000
 41
1.1430
 42
0.4318
 43
1.0000
 50
180.0000
  0
INSERT
  8
31
  2
RECT
 10
34.2926
 20
62.4000
 30
0.0000
 41
1.1430
 42
0.4318
 43
1.0000
 50
180.0000
  0
INSERT
  8
31
  2
RECT
 10
34.2926
 20
63.2000
 30
0.0000
 41
1.1430
 42
0.4318
 43
1.0000
 50
180.0000
  0
INSERT
  8
31
  2
RECT
 10
32.8000
 20
64.6926
 30
0.0000
 41
0.4318
 42
1.1430
 43
1.0000
 50
180.0000
  0
INSERT
  8
31
  2
RECT
 10
32.0000
 20
64.6926
 30
0.0000
 41
0.4318
 42
1.1430
 43
1.0000
 50
180.0000
  0
INSERT
  8
31
  2
RECT
 10
31.2000
 20
64.6926
 30
0.0000
 41
0.4318
 42
1.1430
 43
1.0000
 50
180.0000
  0
INSERT
  8
31
  2
RECT
 10
30.4000
 20
64.6926
 30
0.0000
 41
0.4318
 42
1.1430
 43
1.0000
 50
180.0000
  0
INSERT
  8
31
  2
RECT
 10
29.6000
 20
64.6926
 30
0.0000
 41
0.4318
 42
1.1430
 43
1.0000
 50
180.0000
  0
INSERT
  8
31
  2
RECT
 10
28.8000
 20
64.6926
 30
0.0000
 41
0.4318
 42
1.1430
 43
1.0000
 50
180.0000
  0
INSERT
  8
31
  2
RECT
 10
28.0000
 20
64.6926
 30
0.0000
 41
0.4318
 42
1.1430
 43
1.0000
 50
180.0000
  0
INSERT
  8
31
  2
RECT
 10
27.2000
 20
64.6926
 30
0.0000
 41
0.4318
 42
1.1430
 43
1.0000
 50
180.0000
  0
INSERT
  8
31
  2
RECT
 10
25.7074
 20
63.2000
 30
0.0000
 41
1.1430
 42
0.4318
 43
1.0000
 50
180.0000
  0
INSERT
  8
31
  2
RECT
 10
25.7074
 20
62.4000
 30
0.0000
 41
1.1430
 42
0.4318
 43
1.0000
 50
180.0000
  0
INSERT
  8
31
  2
RECT
 10
25.7074
 20
61.6000
 30
0.0000
 41
1.1430
 42
0.4318
 43
1.0000
 50
180.0000
  0
INSERT
  8
31
  2
RECT
 10
25.7074
 20
60.8000
 30
0.0000
 41
1.1430
 42
0.4318
 43
1.0000
 50
180.0000
  0
INSERT
  8
31
  2
RECT
 10
25.7074
 20
60.0000
 30
0.0000
 41
1.1430
 42
0.4318
 43
1.0000
 50
180.0000
  0
INSERT
  8
31
  2
RECT
 10
25.7074
 20
59.2000
 30
0.0000
 41
1.1430
 42
0.4318
 43
1.0000
 50
180.0000
  0
INSERT
  8
31
  2
RECT
 10
25.7074
 20
58.4000
 30
0.0000
 41
1.1430
 42
0.4318
 43
1.0000
 50
180.0000
  0
INSERT
  8
31
  2
RECT
 10
25.7074
 20
57.6000
 30
0.0000
 41
1.1430
 42
0.4318
 43
1.0000
 50
180.0000
  0
INSERT
  8
31
  2
RECT
 10
27.2000
 20
56.1074
 30
0.0000
 41
0.4318
 42
1.1430
 43
1.0000
 50
180.0000
  0
INSERT
  8
31
  2
RECT
 10
28.0000
 20
56.1074
 30
0.0000
 41
0.4318
 42
1.1430
 43
1.0000
 50
180.0000
  0
INSERT
  8
31
  2
RECT
 10
28.8000
 20
56.1074
 30
0.0000
 41
0.4318
 42
1.1430
 43
1.0000
 50
180.0000
  0
INSERT
  8
31
  2
RECT
 10
29.6000
 20
56.1074
 30
0.0000
 41
0.4318
 42
1.1430
 43
1.0000
 50
180.0000
  0
INSERT
  8
31
  2
RECT
 10
30.4000
 20
56.1074
 30
0.0000
 41
0.4318
 42
1.1430
 43
1.0000
 50
180.0000
  0
INSERT
  8
31
  2
RECT
 10
31.2000
 20
56.1074
 30
0.0000
 41
0.4318
 42
1.1430
 43
1.0000
 50
180.0000
  0
INSERT
  8
31
  2
RECT
 10
32.0000
 20
56.1074
 30
0.0000
 41
0.4318
 42
1.1430
 43
1.0000
 50
180.0000
  0
INSERT
  8
31
  2
RECT
 10
32.8000
 20
56.1074
 30
0.0000
 41
0.4318
 42
1.1430
 43
1.0000
 50
180.0000
  0
INSERT
  8
31
  2
RECT
 10
41.2000
 20
68.7750
 30
0.0000
 41
1.1730
 42
1.3730
 43
1.0000
 50
90.0000
  0
INSERT
  8
31
  2
RECT
 10
41.2000
 20
70.6750
 30
0.0000
 41
1.1730
 42
1.3730
 43
1.0000
 50
90.0000
  0
INSERT
  8
31
  2
RECT
 10
21.8000
 20
66.0500
 30
0.0000
 41
1.1730
 42
1.3730
 43
1.0000
 50
90.0000
  0
INSERT
  8
31
  2
RECT
 10
21.8000
 20
67.9500
 30
0.0000
 41
1.1730
 42
1.3730
 43
1.0000
 50
90.0000
  0
INSERT
  8
31
  2
RECT
 10
21.7750
 20
63.9750
 30
0.0000
 41
1.1730
 42
1.3730
 43
1.0000
 50
270.0000
  0
INSERT
  8
31
  2
RECT
 10
21.7750
 20
62.0750
 30
0.0000
 41
1.1730
 42
1.3730
 43
1.0000
 50
270.0000
  0
INSERT
  8
31
  2
RECT
 10
48.3388
 20
58.8090
 30
0.0000
 41
1.1730
 42
1.3730
 43
1.0000
 50
0.0000
  0
INSERT
  8
31
  2
RECT
 10
50.2388
 20
58.8090
 30
0.0000
 41
1.1730
 42
1.3730
 43
1.0000
 50
0.0000
  0
INSERT
  8
31
  2
RECT
 10
14.6250
 20
57.1750
 30
0.0000
 41
1.1730
 42
1.3730
 43
1.0000
 50
270.0000
  0
INSERT
  8
31
  2
RECT
 10
14.6250
 20
55.2750
 30
0.0000
 41
1.1730
 42
1.3730
 43
1.0000
 50
270.0000
  0
INSERT
  8
31
  2
RECT
 10
41.2000
 20
56.7500
 30
0.0000
 41
1.1730
 42
1.3730
 43
1.0000
 50
270.0000
  0
INSERT
  8
31
  2
RECT
 10
41.2000
 20
54.8500
 30
0.0000
 41
1.1730
 42
1.3730
 43
1.0000
 50
270.0000
  0
INSERT
  8
31
  2
RECT
 10
6.1750
 20
51.6500
 30
0.0000
 41
1.1730
 42
1.3730
 43
1.0000
 50
270.0000
  0
INSERT
  8
31
  2
RECT
 10
6.1750
 20
49.7500
 30
0.0000
 41
1.1730
 42
1.3730
 43
1.0000
 50
270.0000
  0
INSERT
  8
31
  2
RECT
 10
45.7000
 20
48.4250
 30
0.0000
 41
2.8730
 42
1.2730
 43
1.0000
 50
180.0000
  0
INSERT
  8
31
  2
RECT
 10
50.5000
 20
48.4250
 30
0.0000
 41
2.8730
 42
1.2730
 43
1.0000
 50
180.0000
  0
INSERT
  8
31
  2
RECT
 10
55.9450
 20
43.6625
 30
0.0000
 41
2.8730
 42
1.2730
 43
1.0000
 50
270.0000
  0
INSERT
  8
31
  2
RECT
 10
55.9450
 20
48.4625
 30
0.0000
 41
2.8730
 42
1.2730
 43
1.0000
 50
270.0000
  0
INSERT
  8
31
  2
RECT
 10
40.9500
 20
42.3750
 30
0.0000
 41
2.8730
 42
1.2730
 43
1.0000
 50
90.0000
  0
INSERT
  8
31
  2
RECT
 10
40.9500
 20
37.5750
 30
0.0000
 41
2.8730
 42
1.2730
 43
1.0000
 50
90.0000
  0
INSERT
  8
31
  2
RECT
 10
12.0000
 20
39.6500
 30
0.0000
 41
1.1730
 42
1.3730
 43
1.0000
 50
180.0000
  0
INSERT
  8
31
  2
RECT
 10
10.1000
 20
39.6500
 30
0.0000
 41
1.1730
 42
1.3730
 43
1.0000
 50
180.0000
  0
INSERT
  8
31
  2
RECT
 10
32.7000
 20
31.1150
 30
0.0000
 41
1.1730
 42
1.3730
 43
1.0000
 50
180.0000
  0
INSERT
  8
31
  2
RECT
 10
30.8000
 20
31.1150
 30
0.0000
 41
1.1730
 42
1.3730
 43
1.0000
 50
180.0000
  0
INSERT
  8
31
  2
RECT
 10
16.9000
 20
29.9250
 30
0.0000
 41
1.1730
 42
1.3730
 43
1.0000
 50
90.0000
  0
INSERT
  8
31
  2
RECT
 10
16.9000
 20
31.8250
 30
0.0000
 41
1.1730
 42
1.3730
 43
1.0000
 50
90.0000
  0
INSERT
  8
31
  2
RECT
 10
45.5000
 20
41.9500
 30
0.0000
 41
1.1730
 42
1.3730
 43
1.0000
 50
90.0000
  0
INSERT
  8
31
  2
RECT
 10
45.5000
 20
43.8500
 30
0.0000
 41
1.1730
 42
1.3730
 43
1.0000
 50
90.0000
  0
INSERT
  8
31
  2
RECT
 10
7.8250
 20
25.6750
 30
0.0000
 41
1.1730
 42
1.3730
 43
1.0000
 50
0.0000
  0
INSERT
  8
31
  2
RECT
 10
9.7250
 20
25.6750
 30
0.0000
 41
1.1730
 42
1.3730
 43
1.0000
 50
0.0000
  0
INSERT
  8
31
  2
RECT
 10
55.9000
 20
53.4250
 30
0.0000
 41
1.1430
 42
1.3430
 43
1.0000
 50
270.0000
  0
INSERT
  8
31
  2
RECT
 10
55.9000
 20
57.7250
 30
0.0000
 41
1.1430
 42
1.3430
 43
1.0000
 50
90.0000
  0
INSERT
  8
31
  2
RECT
 10
52.6250
 20
29.3100
 30
0.0000
 41
1.1430
 42
1.3430
 43
1.0000
 50
0.0000
  0
INSERT
  8
31
  2
RECT
 10
48.3250
 20
29.3100
 30
0.0000
 41
1.1430
 42
1.3430
 43
1.0000
 50
180.0000
  0
INSERT
  8
31
  2
RECT
 10
6.7440
 20
37.0500
 30
0.0000
 41
0.2210
 42
1.2700
 43
1.0000
 50
270.0000
  0
INSERT
  8
31
  2
RECT
 10
6.7440
 20
36.4000
 30
0.0000
 41
0.2210
 42
1.2700
 43
1.0000
 50
270.0000
  0
INSERT
  8
31
  2
RECT
 10
6.7440
 20
35.7500
 30
0.0000
 41
0.2210
 42
1.2700
 43
1.0000
 50
270.0000
  0
INSERT
  8
31
  2
RECT
 10
6.7440
 20
35.1000
 30
0.0000
 41
0.2210
 42
1.2700
 43
1.0000
 50
270.0000
  0
INSERT
  8
31
  2
RECT
 10
6.7440
 20
34.4500
 30
0.0000
 41
0.2210
 42
1.2700
 43
1.0000
 50
270.0000
  0
INSERT
  8
31
  2
RECT
 10
6.7440
 20
33.8000
 30
0.0000
 41
0.2210
 42
1.2700
 43
1.0000
 50
270.0000
  0
INSERT
  8
31
  2
RECT
 10
6.7440
 20
33.1500
 30
0.0000
 41
0.2210
 42
1.2700
 43
1.0000
 50
270.0000
  0
INSERT
  8
31
  2
RECT
 10
6.7440
 20
32.5000
 30
0.0000
 41
0.2210
 42
1.2700
 43
1.0000
 50
270.0000
  0
INSERT
  8
31
  2
RECT
 10
6.7440
 20
31.8500
 30
0.0000
 41
0.2210
 42
1.2700
 43
1.0000
 50
270.0000
  0
INSERT
  8
31
  2
RECT
 10
6.7440
 20
31.2000
 30
0.0000
 41
0.2210
 42
1.2700
 43
1.0000
 50
270.0000
  0
INSERT
  8
31
  2
RECT
 10
6.7440
 20
30.5500
 30
0.0000
 41
0.2210
 42
1.2700
 43
1.0000
 50
270.0000
  0
INSERT
  8
31
  2
RECT
 10
6.7440
 20
29.9000
 30
0.0000
 41
0.2210
 42
1.2700
 43
1.0000
 50
270.0000
  0
INSERT
  8
31
  2
RECT
 10
6.7440
 20
29.2500
 30
0.0000
 41
0.2210
 42
1.2700
 43
1.0000
 50
270.0000
  0
INSERT
  8
31
  2
RECT
 10
6.7440
 20
28.6000
 30
0.0000
 41
0.2210
 42
1.2700
 43
1.0000
 50
270.0000
  0
INSERT
  8
31
  2
RECT
 10
14.0560
 20
28.6000
 30
0.0000
 41
0.2210
 42
1.2700
 43
1.0000
 50
270.0000
  0
INSERT
  8
31
  2
RECT
 10
14.0560
 20
29.2500
 30
0.0000
 41
0.2210
 42
1.2700
 43
1.0000
 50
270.0000
  0
INSERT
  8
31
  2
RECT
 10
14.0560
 20
29.9000
 30
0.0000
 41
0.2210
 42
1.2700
 43
1.0000
 50
270.0000
  0
INSERT
  8
31
  2
RECT
 10
14.0560
 20
30.5500
 30
0.0000
 41
0.2210
 42
1.2700
 43
1.0000
 50
270.0000
  0
INSERT
  8
31
  2
RECT
 10
14.0560
 20
31.2000
 30
0.0000
 41
0.2210
 42
1.2700
 43
1.0000
 50
270.0000
  0
INSERT
  8
31
  2
RECT
 10
14.0560
 20
31.8500
 30
0.0000
 41
0.2210
 42
1.2700
 43
1.0000
 50
270.0000
  0
INSERT
  8
31
  2
RECT
 10
14.0560
 20
32.5000
 30
0.0000
 41
0.2210
 42
1.2700
 43
1.0000
 50
270.0000
  0
INSERT
  8
31
  2
RECT
 10
14.0560
 20
33.1500
 30
0.0000
 41
0.2210
 42
1.2700
 43
1.0000
 50
270.0000
  0
INSERT
  8
31
  2
RECT
 10
14.0560
 20
33.8000
 30
0.0000
 41
0.2210
 42
1.2700
 43
1.0000
 50
270.0000
  0
INSERT
  8
31
  2
RECT
 10
14.0560
 20
34.4500
 30
0.0000
 41
0.2210
 42
1.2700
 43
1.0000
 50
270.0000
  0
INSERT
  8
31
  2
RECT
 10
14.0560
 20
35.1000
 30
0.0000
 41
0.2210
 42
1.2700
 43
1.0000
 50
270.0000
  0
INSERT
  8
31
  2
RECT
 10
14.0560
 20
35.7500
 30
0.0000
 41
0.2210
 42
1.2700
 43
1.0000
 50
270.0000
  0
INSERT
  8
31
  2
RECT
 10
14.0560
 20
36.4000
 30
0.0000
 41
0.2210
 42
1.2700
 43
1.0000
 50
270.0000
  0
INSERT
  8
31
  2
RECT
 10
14.0560
 20
37.0500
 30
0.0000
 41
0.2210
 42
1.2700
 43
1.0000
 50
270.0000
  0
INSERT
  8
31
  2
RECT
 10
56.3170
 20
64.9978
 30
0.0000
 41
2.7930
 42
2.6630
 43
1.0000
 50
180.0000
  0
INSERT
  8
31
  2
RECT
 10
45.7570
 20
64.9978
 30
0.0000
 41
2.7930
 42
2.6630
 43
1.0000
 50
180.0000
  0
INSERT
  8
31
  2
RECT
 10
46.7396
 20
56.9294
 30
0.0000
 41
0.4730
 42
2.0730
 43
1.0000
 50
270.0000
  0
INSERT
  8
31
  2
RECT
 10
46.7396
 20
55.6594
 30
0.0000
 41
0.4730
 42
2.0730
 43
1.0000
 50
270.0000
  0
INSERT
  8
31
  2
RECT
 10
46.7396
 20
54.3894
 30
0.0000
 41
0.4730
 42
2.0730
 43
1.0000
 50
270.0000
  0
INSERT
  8
31
  2
RECT
 10
46.7396
 20
53.1194
 30
0.0000
 41
0.4730
 42
2.0730
 43
1.0000
 50
270.0000
  0
INSERT
  8
31
  2
RECT
 10
51.9396
 20
53.1194
 30
0.0000
 41
0.4730
 42
2.0730
 43
1.0000
 50
270.0000
  0
INSERT
  8
31
  2
RECT
 10
51.9396
 20
54.3894
 30
0.0000
 41
0.4730
 42
2.0730
 43
1.0000
 50
270.0000
  0
INSERT
  8
31
  2
RECT
 10
51.9396
 20
55.6594
 30
0.0000
 41
0.4730
 42
2.0730
 43
1.0000
 50
270.0000
  0
INSERT
  8
31
  2
RECT
 10
51.9396
 20
56.9294
 30
0.0000
 41
0.4730
 42
2.0730
 43
1.0000
 50
270.0000
  0
INSERT
  8
31
  2
RECT
 10
44.7692
 20
32.8348
 30
0.0000
 41
1.0922
 42
0.2794
 43
1.0000
 50
180.0000
  0
INSERT
  8
31
  2
RECT
 10
44.7692
 20
33.4698
 30
0.0000
 41
1.0922
 42
0.2794
 43
1.0000
 50
180.0000
  0
INSERT
  8
31
  2
RECT
 10
44.7692
 20
34.1302
 30
0.0000
 41
1.0922
 42
0.2794
 43
1.0000
 50
180.0000
  0
INSERT
  8
31
  2
RECT
 10
44.7692
 20
34.7652
 30
0.0000
 41
1.0922
 42
0.2794
 43
1.0000
 50
180.0000
  0
INSERT
  8
31
  2
RECT
 10
42.3308
 20
34.7652
 30
0.0000
 41
1.0922
 42
0.2794
 43
1.0000
 50
180.0000
  0
INSERT
  8
31
  2
RECT
 10
42.3308
 20
34.1302
 30
0.0000
 41
1.0922
 42
0.2794
 43
1.0000
 50
180.0000
  0
INSERT
  8
31
  2
RECT
 10
42.3308
 20
33.4698
 30
0.0000
 41
1.0922
 42
0.2794
 43
1.0000
 50
180.0000
  0
INSERT
  8
31
  2
RECT
 10
42.3308
 20
32.8348
 30
0.0000
 41
1.0922
 42
0.2794
 43
1.0000
 50
180.0000
  0
INSERT
  8
31
  2
RECT
 10
52.1680
 20
32.8602
 30
0.0000
 41
1.0922
 42
0.3810
 43
1.0000
 50
180.0000
  0
INSERT
  8
31
  2
RECT
 10
52.1680
 20
33.8000
 30
0.0000
 41
1.0922
 42
0.3810
 43
1.0000
 50
180.0000
  0
INSERT
  8
31
  2
RECT
 10
52.1680
 20
34.7398
 30
0.0000
 41
1.0922
 42
0.3810
 43
1.0000
 50
180.0000
  0
INSERT
  8
31
  2
RECT
 10
49.8820
 20
34.7398
 30
0.0000
 41
1.0922
 42
0.3810
 43
1.0000
 50
180.0000
  0
INSERT
  8
31
  2
RECT
 10
49.8820
 20
33.8000
 30
0.0000
 41
1.0922
 42
0.3810
 43
1.0000
 50
180.0000
  0
INSERT
  8
31
  2
RECT
 10
49.8820
 20
32.8602
 30
0.0000
 41
1.0922
 42
0.3810
 43
1.0000
 50
180.0000
  0
INSERT
  8
31
  2
RECT
 10
16.9000
 20
49.4500
 30
0.0000
 41
0.2730
 42
1.3730
 43
1.0000
 50
180.0000
  0
INSERT
  8
31
  2
RECT
 10
16.2500
 20
49.4500
 30
0.0000
 41
0.2730
 42
1.3730
 43
1.0000
 50
180.0000
  0
INSERT
  8
31
  2
RECT
 10
15.6000
 20
49.4500
 30
0.0000
 41
0.2730
 42
1.3730
 43
1.0000
 50
180.0000
  0
INSERT
  8
31
  2
RECT
 10
14.9500
 20
49.4500
 30
0.0000
 41
0.2730
 42
1.3730
 43
1.0000
 50
180.0000
  0
INSERT
  8
31
  2
RECT
 10
14.3000
 20
49.4500
 30
0.0000
 41
0.2730
 42
1.3730
 43
1.0000
 50
180.0000
  0
INSERT
  8
31
  2
RECT
 10
13.6500
 20
49.4500
 30
0.0000
 41
0.2730
 42
1.3730
 43
1.0000
 50
180.0000
  0
INSERT
  8
31
  2
RECT
 10
13.0000
 20
49.4500
 30
0.0000
 41
0.2730
 42
1.3730
 43
1.0000
 50
180.0000
  0
INSERT
  8
31
  2
RECT
 10
12.3500
 20
49.4500
 30
0.0000
 41
0.2730
 42
1.3730
 43
1.0000
 50
180.0000
  0
INSERT
  8
31
  2
RECT
 10
11.7000
 20
49.4500
 30
0.0000
 41
0.2730
 42
1.3730
 43
1.0000
 50
180.0000
  0
INSERT
  8
31
  2
RECT
 10
11.0500
 20
49.4500
 30
0.0000
 41
0.2730
 42
1.3730
 43
1.0000
 50
180.0000
  0
INSERT
  8
31
  2
RECT
 10
10.4000
 20
49.4500
 30
0.0000
 41
0.2730
 42
1.3730
 43
1.0000
 50
180.0000
  0
INSERT
  8
31
  2
RECT
 10
9.7500
 20
49.4500
 30
0.0000
 41
0.2730
 42
1.3730
 43
1.0000
 50
180.0000
  0
INSERT
  8
31
  2
RECT
 10
9.1000
 20
49.4500
 30
0.0000
 41
0.2730
 42
1.3730
 43
1.0000
 50
180.0000
  0
INSERT
  8
31
  2
RECT
 10
8.4500
 20
49.4500
 30
0.0000
 41
0.2730
 42
1.3730
 43
1.0000
 50
180.0000
  0
INSERT
  8
31
  2
RECT
 10
8.4500
 20
42.2000
 30
0.0000
 41
0.2730
 42
1.3730
 43
1.0000
 50
180.0000
  0
INSERT
  8
31
  2
RECT
 10
9.1000
 20
42.2000
 30
0.0000
 41
0.2730
 42
1.3730
 43
1.0000
 50
180.0000
  0
INSERT
  8
31
  2
RECT
 10
9.7500
 20
42.2000
 30
0.0000
 41
0.2730
 42
1.3730
 43
1.0000
 50
180.0000
  0
INSERT
  8
31
  2
RECT
 10
10.4000
 20
42.2000
 30
0.0000
 41
0.2730
 42
1.3730
 43
1.0000
 50
180.0000
  0
INSERT
  8
31
  2
RECT
 10
11.0500
 20
42.2000
 30
0.0000
 41
0.2730
 42
1.3730
 43
1.0000
 50
180.0000
  0
INSERT
  8
31
  2
RECT
 10
11.7000
 20
42.2000
 30
0.0000
 41
0.2730
 42
1.3730
 43
1.0000
 50
180.0000
  0
INSERT
  8
31
  2
RECT
 10
12.3500
 20
42.2000
 30
0.0000
 41
0.2730
 42
1.3730
 43
1.0000
 50
180.0000
  0
INSERT
  8
31
  2
RECT
 10
13.0000
 20
42.2000
 30
0.0000
 41
0.2730
 42
1.3730
 43
1.0000
 50
180.0000
  0
INSERT
  8
31
  2
RECT
 10
13.6500
 20
42.2000
 30
0.0000
 41
0.2730
 42
1.3730
 43
1.0000
 50
180.0000
  0
INSERT
  8
31
  2
RECT
 10
14.3000
 20
42.2000
 30
0.0000
 41
0.2730
 42
1.3730
 43
1.0000
 50
180.0000
  0
INSERT
  8
31
  2
RECT
 10
14.9500
 20
42.2000
 30
0.0000
 41
0.2730
 42
1.3730
 43
1.0000
 50
180.0000
  0
INSERT
  8
31
  2
RECT
 10
15.6000
 20
42.2000
 30
0.0000
 41
0.2730
 42
1.3730
 43
1.0000
 50
180.0000
  0
INSERT
  8
31
  2
RECT
 10
16.2500
 20
42.2000
 30
0.0000
 41
0.2730
 42
1.3730
 43
1.0000
 50
180.0000
  0
INSERT
  8
31
  2
RECT
 10
16.9000
 20
42.2000
 30
0.0000
 41
0.2730
 42
1.3730
 43
1.0000
 50
180.0000
  0
INSERT
  8
31
  2
RECT
 10
23.2000
 20
49.4250
 30
0.0000
 41
0.8730
 42
1.2730
 43
1.0000
 50
90.0000
  0
INSERT
  8
31
  2
RECT
 10
23.2000
 20
51.3250
 30
0.0000
 41
0.8730
 42
1.2730
 43
1.0000
 50
90.0000
  0
INSERT
  8
31
  2
RECT
 10
21.0000
 20
50.3750
 30
0.0000
 41
0.8730
 42
1.2730
 43
1.0000
 50
90.0000
  0
INSERT
  8
31
  2
RECT
 10
21.4250
 20
56.0250
 30
0.0000
 41
0.8730
 42
1.2730
 43
1.0000
 50
180.0000
  0
INSERT
  8
31
  2
RECT
 10
19.5250
 20
56.0250
 30
0.0000
 41
0.8730
 42
1.2730
 43
1.0000
 50
180.0000
  0
INSERT
  8
31
  2
RECT
 10
20.4750
 20
53.8250
 30
0.0000
 41
0.8730
 42
1.2730
 43
1.0000
 50
180.0000
  0
INSERT
  8
31
  2
RECT
 10
4.2000
 20
53.7500
 30
0.0000
 41
0.8730
 42
1.2730
 43
1.0000
 50
180.0000
  0
INSERT
  8
31
  2
RECT
 10
2.3000
 20
53.7500
 30
0.0000
 41
0.8730
 42
1.2730
 43
1.0000
 50
180.0000
  0
INSERT
  8
31
  2
RECT
 10
3.2500
 20
51.5500
 30
0.0000
 41
0.8730
 42
1.2730
 43
1.0000
 50
180.0000
  0
INSERT
  8
31
  2
RECT
 10
49.9250
 20
39.3000
 30
0.0000
 41
0.8730
 42
1.2730
 43
1.0000
 50
270.0000
  0
INSERT
  8
31
  2
RECT
 10
49.9250
 20
37.4000
 30
0.0000
 41
0.8730
 42
1.2730
 43
1.0000
 50
270.0000
  0
INSERT
  8
31
  2
RECT
 10
52.1250
 20
38.3500
 30
0.0000
 41
0.8730
 42
1.2730
 43
1.0000
 50
270.0000
  0
INSERT
  8
31
  2
RECT
 10
14.9300
 20
64.7700
 30
0.0000
 41
1.6530
 42
1.4230
 43
1.0000
 50
90.0000
  0
INSERT
  8
31
  2
RECT
 10
14.9300
 20
67.3100
 30
0.0000
 41
1.6530
 42
1.4230
 43
1.0000
 50
90.0000
  0
INSERT
  8
31
  2
RECT
 10
7.9300
 20
67.3100
 30
0.0000
 41
1.6530
 42
1.4230
 43
1.0000
 50
270.0000
  0
INSERT
  8
31
  2
RECT
 10
7.9300
 20
64.7700
 30
0.0000
 41
1.6530
 42
1.4230
 43
1.0000
 50
270.0000
  0
INSERT
  8
31
  2
RECT
 10
14.9300
 20
59.6900
 30
0.0000
 41
1.6530
 42
1.4230
 43
1.0000
 50
90.0000
  0
INSERT
  8
31
  2
RECT
 10
14.9300
 20
62.2300
 30
0.0000
 41
1.6530
 42
1.4230
 43
1.0000
 50
90.0000
  0
INSERT
  8
31
  2
RECT
 10
7.9300
 20
62.2300
 30
0.0000
 41
1.6530
 42
1.4230
 43
1.0000
 50
270.0000
  0
INSERT
  8
31
  2
RECT
 10
7.9300
 20
59.6900
 30
0.0000
 41
1.6530
 42
1.4230
 43
1.0000
 50
270.0000
  0
INSERT
  8
31
  2
RECT
 10
11.1100
 20
70.5000
 30
0.0000
 41
1.1730
 42
1.3730
 43
1.0000
 50
180.0000
  0
INSERT
  8
31
  2
RECT
 10
9.2100
 20
70.5000
 30
0.0000
 41
1.1730
 42
1.3730
 43
1.0000
 50
180.0000
  0
INSERT
  8
31
  2
RECT
 10
17.4000
 20
62.0500
 30
0.0000
 41
1.1730
 42
1.3730
 43
1.0000
 50
90.0000
  0
INSERT
  8
31
  2
RECT
 10
17.4000
 20
63.9500
 30
0.0000
 41
1.1730
 42
1.3730
 43
1.0000
 50
90.0000
  0
INSERT
  8
31
  2
RECT
 10
17.2250
 20
55.2750
 30
0.0000
 41
1.1730
 42
1.3730
 43
1.0000
 50
90.0000
  0
INSERT
  8
31
  2
RECT
 10
17.2250
 20
57.1750
 30
0.0000
 41
1.1730
 42
1.3730
 43
1.0000
 50
90.0000
  0
INSERT
  8
31
  2
RECT
 10
23.4250
 20
55.9000
 30
0.0000
 41
1.1730
 42
1.3730
 43
1.0000
 50
0.0000
  0
INSERT
  8
31
  2
RECT
 10
25.3250
 20
55.9000
 30
0.0000
 41
1.1730
 42
1.3730
 43
1.0000
 50
0.0000
  0
INSERT
  8
31
  2
RECT
 10
6.1750
 20
55.8750
 30
0.0000
 41
1.1730
 42
1.3730
 43
1.0000
 50
270.0000
  0
INSERT
  8
31
  2
RECT
 10
6.1750
 20
53.9750
 30
0.0000
 41
1.1730
 42
1.3730
 43
1.0000
 50
270.0000
  0
INSERT
  8
31
  2
RECT
 10
8.4500
 20
55.8750
 30
0.0000
 41
1.1730
 42
1.3730
 43
1.0000
 50
270.0000
  0
INSERT
  8
31
  2
RECT
 10
8.4500
 20
53.9750
 30
0.0000
 41
1.1730
 42
1.3730
 43
1.0000
 50
270.0000
  0
INSERT
  8
31
  2
RECT
 10
10.4000
 20
53.9750
 30
0.0000
 41
1.1730
 42
1.3730
 43
1.0000
 50
90.0000
  0
INSERT
  8
31
  2
RECT
 10
10.4000
 20
55.8750
 30
0.0000
 41
1.1730
 42
1.3730
 43
1.0000
 50
90.0000
  0
INSERT
  8
31
  2
RECT
 10
25.3250
 20
53.6250
 30
0.0000
 41
1.1730
 42
1.3730
 43
1.0000
 50
180.0000
  0
INSERT
  8
31
  2
RECT
 10
23.4250
 20
53.6250
 30
0.0000
 41
1.1730
 42
1.3730
 43
1.0000
 50
180.0000
  0
INSERT
  8
31
  2
RECT
 10
35.7750
 20
50.7000
 30
0.0000
 41
1.1730
 42
1.3730
 43
1.0000
 50
0.0000
  0
INSERT
  8
31
  2
RECT
 10
37.6750
 20
50.7000
 30
0.0000
 41
1.1730
 42
1.3730
 43
1.0000
 50
0.0000
  0
INSERT
  8
31
  2
RECT
 10
25.5125
 20
51.3250
 30
0.0000
 41
1.1730
 42
1.3730
 43
1.0000
 50
270.0000
  0
INSERT
  8
31
  2
RECT
 10
25.5125
 20
49.4250
 30
0.0000
 41
1.1730
 42
1.3730
 43
1.0000
 50
270.0000
  0
INSERT
  8
31
  2
RECT
 10
6.5000
 20
42.2250
 30
0.0000
 41
1.1730
 42
1.3730
 43
1.0000
 50
270.0000
  0
INSERT
  8
31
  2
RECT
 10
6.5000
 20
40.3250
 30
0.0000
 41
1.1730
 42
1.3730
 43
1.0000
 50
270.0000
  0
INSERT
  8
31
  2
RECT
 10
30.8000
 20
36.1950
 30
0.0000
 41
1.1730
 42
1.3730
 43
1.0000
 50
0.0000
  0
INSERT
  8
31
  2
RECT
 10
32.7000
 20
36.1950
 30
0.0000
 41
1.1730
 42
1.3730
 43
1.0000
 50
0.0000
  0
INSERT
  8
31
  2
RECT
 10
38.5250
 20
32.8850
 30
0.0000
 41
1.1730
 42
1.3730
 43
1.0000
 50
90.0000
  0
INSERT
  8
31
  2
RECT
 10
38.5250
 20
34.7850
 30
0.0000
 41
1.1730
 42
1.3730
 43
1.0000
 50
90.0000
  0
INSERT
  8
31
  2
RECT
 10
40.3125
 20
30.4850
 30
0.0000
 41
1.1730
 42
1.3730
 43
1.0000
 50
180.0000
  0
INSERT
  8
31
  2
RECT
 10
38.4125
 20
30.4850
 30
0.0000
 41
1.1730
 42
1.3730
 43
1.0000
 50
180.0000
  0
INSERT
  8
31
  2
RECT
 10
40.3125
 20
28.1400
 30
0.0000
 41
1.1730
 42
1.3730
 43
1.0000
 50
180.0000
  0
INSERT
  8
31
  2
RECT
 10
38.4125
 20
28.1400
 30
0.0000
 41
1.1730
 42
1.3730
 43
1.0000
 50
180.0000
  0
INSERT
  8
31
  2
RECT
 10
8.0000
 20
19.5000
 30
0.0000
 41
2.3730
 42
0.3730
 43
1.0000
 50
90.0000
  0
INSERT
  8
31
  2
RECT
 10
7.2000
 20
19.5000
 30
0.0000
 41
2.3730
 42
0.3730
 43
1.0000
 50
90.0000
  0
INSERT
  8
31
  2
RECT
 10
9.6000
 20
19.5000
 30
0.0000
 41
2.3730
 42
0.3730
 43
1.0000
 50
90.0000
  0
INSERT
  8
31
  2
RECT
 10
8.8000
 20
19.5000
 30
0.0000
 41
2.3730
 42
0.3730
 43
1.0000
 50
90.0000
  0
INSERT
  8
31
  2
RECT
 10
3.5000
 20
14.0000
 30
0.0000
 41
2.3730
 42
1.8730
 43
1.0000
 50
90.0000
  0
INSERT
  8
31
  2
RECT
 10
3.5000
 20
19.5000
 30
0.0000
 41
2.3730
 42
1.8730
 43
1.0000
 50
90.0000
  0
INSERT
  8
31
  2
RECT
 10
12.5000
 20
14.0000
 30
0.0000
 41
2.3730
 42
1.8730
 43
1.0000
 50
90.0000
  0
INSERT
  8
31
  2
RECT
 10
12.5000
 20
19.5000
 30
0.0000
 41
2.3730
 42
1.8730
 43
1.0000
 50
90.0000
  0
INSERT
  8
31
  2
RECT
 10
6.4000
 20
19.5000
 30
0.0000
 41
2.3730
 42
0.3730
 43
1.0000
 50
90.0000
  0
ENDSEC
  0
EOF
